<?xml version="1.0" standalone="no"?>
<!DOCTYPE svg PUBLIC "-//W3C//DTD SVG 20010904//EN"
 "http://www.w3.org/TR/2001/REC-SVG-20010904/DTD/svg10.dtd">
<svg version="1.0" xmlns="http://www.w3.org/2000/svg"
 width="1072.000000pt" height="122.000000pt" viewBox="0 0 1072.000000 122.000000"
 preserveAspectRatio="xMidYMid meet">
<metadata>
Created by potrace 1.15, written by Peter Selinger 2001-2017
</metadata>
<g transform="translate(0.000000,122.000000) scale(0.100000,-0.100000)"
fill="#000000" stroke="none">
<path d="M2261 1066 c-47 -83 -143 -180 -213 -216 l-61 -30 -199 0 -198 0 0
30 c0 24 4 30 21 30 50 0 78 47 47 78 -16 16 -200 16 -216 0 -31 -31 -3 -78
47 -78 17 0 21 -6 21 -30 l0 -30 -115 0 -115 0 0 30 c0 24 4 30 21 30 50 0 78
47 47 78 -16 16 -200 16 -216 0 -28 -28 -1 -78 44 -78 20 0 24 -5 24 -30 l0
-30 -134 0 -135 0 -27 35 c-27 36 -60 45 -82 23 -8 -8 -12 -63 -12 -179 0
-139 3 -170 16 -183 28 -28 45 -21 96 42 30 37 48 28 48 -22 0 -84 42 -164
112 -212 32 -23 38 -32 38 -63 0 -56 11 -61 126 -61 107 0 114 3 114 51 0 15
7 19 35 19 30 0 35 -3 35 -23 0 -40 18 -47 120 -47 101 0 120 7 120 46 0 19 7
22 58 28 75 9 131 37 181 91 40 44 71 120 71 178 0 27 2 29 26 23 75 -19 172
-106 245 -219 22 -34 47 -66 55 -70 22 -12 51 1 58 26 10 38 7 764 -4 791 -7
20 -17 26 -39 26 -25 0 -34 -8 -60 -54z m19 -368 l0 -231 -60 59 c-71 70 -158
121 -220 130 -37 5 -50 12 -67 39 l-21 32 54 6 c84 9 169 54 244 129 36 35 66
65 68 66 1 1 2 -102 2 -230z m-465 13 c116 -52 146 -193 62 -288 -44 -50 -82
-63 -181 -63 -93 0 -116 -11 -116 -56 0 -20 -5 -24 -30 -24 l-30 0 0 150 0
150 30 0 30 0 0 -63 c0 -36 5 -68 12 -75 7 -7 43 -12 91 -12 77 0 80 1 113 34
29 29 34 41 34 81 0 40 -5 52 -34 81 l-34 34 -431 0 -431 0 0 35 0 35 438 0
c402 0 440 -2 477 -19z m-545 -281 l0 -150 -30 0 -30 0 0 150 0 150 30 0 30 0
0 -150z"/>
<path d="M2880 1073 c-97 -50 -147 -153 -157 -318 -6 -105 7 -186 42 -264 32
-68 67 -108 120 -132 114 -53 239 13 296 157 20 52 23 76 24 199 0 121 -3 148
-22 199 -41 109 -110 172 -199 182 -41 5 -58 1 -104 -23z m149 -34 c17 -17 37
-53 46 -82 36 -119 36 -375 0 -477 -22 -61 -40 -87 -75 -105 -69 -36 -136 39
-161 179 -16 93 -7 325 16 395 10 32 31 69 50 88 43 43 82 44 124 2z"/>
<path d="M5680 1071 c0 -5 14 -12 30 -16 l30 -7 0 -329 0 -329 -30 -6 c-16 -4
-30 -13 -30 -20 0 -11 23 -14 105 -14 82 0 105 3 105 14 0 7 -13 16 -30 20
l-30 6 0 345 0 345 -75 0 c-41 0 -75 -4 -75 -9z"/>
<path d="M6190 995 c0 -47 4 -85 9 -85 17 0 52 53 64 97 l11 43 48 0 48 0 0
-330 0 -330 -30 -6 c-16 -4 -30 -13 -30 -20 0 -11 23 -14 111 -14 82 0 110 3
107 12 -3 7 -19 16 -36 20 l-32 9 0 329 0 330 48 0 c49 0 49 0 62 -42 13 -46
46 -98 61 -98 5 0 9 38 9 85 l0 85 -225 0 -225 0 0 -85z"/>
<path d="M8290 1071 c0 -5 14 -12 30 -16 l30 -7 -2 -331 -3 -331 -24 -6 c-14
-3 -26 -11 -29 -18 -3 -9 18 -12 77 -12 75 0 81 2 81 20 l0 21 22 -21 c69 -64
189 -25 239 77 28 58 38 181 19 248 -34 121 -155 189 -250 140 l-30 -16 0 131
0 130 -80 0 c-44 0 -80 -4 -80 -9z m295 -275 c32 -32 55 -115 55 -201 0 -124
-45 -225 -101 -225 -11 0 -36 15 -55 34 l-34 34 0 171 0 171 33 20 c42 26 73
25 102 -4z"/>
<path d="M4233 858 c-13 -6 -23 -15 -23 -19 0 -4 -15 -3 -32 2 -80 22 -174 -2
-216 -56 -50 -63 -50 -164 -2 -218 l27 -31 -34 -34 c-29 -29 -34 -39 -31 -74
2 -31 10 -46 31 -62 25 -18 47 -22 162 -26 158 -6 175 -14 175 -88 0 -38 -5
-50 -38 -82 -63 -63 -166 -65 -223 -4 -19 20 -24 37 -25 77 0 48 -2 52 -34 65
-43 17 -58 10 -66 -32 -5 -27 0 -47 17 -83 35 -69 95 -98 203 -98 142 0 208
55 214 177 5 77 -8 106 -61 138 -27 17 -51 20 -150 20 -149 0 -188 18 -138 64
17 15 26 16 77 5 95 -19 181 17 219 92 31 59 11 182 -34 211 -15 9 -17 15 -9
25 18 22 38 14 55 -22 17 -36 33 -41 80 -29 19 5 20 9 11 34 -5 16 -20 36 -33
44 -28 18 -89 20 -122 4z m-61 -70 c51 -72 27 -248 -37 -264 -65 -16 -105 41
-105 148 0 132 82 199 142 116z"/>
<path d="M3507 839 c-10 -6 -32 -32 -48 -57 l-29 -46 0 52 0 52 -76 0 c-55 0
-75 -3 -72 -12 3 -7 15 -15 29 -18 l24 -6 0 -209 0 -209 -24 -6 c-14 -3 -26
-11 -29 -18 -3 -9 24 -12 108 -12 83 0 111 3 108 12 -3 7 -19 16 -36 20 l-32
9 0 143 c0 132 2 146 23 177 33 48 69 67 106 53 28 -11 29 -10 45 29 8 22 13
44 10 48 -7 12 -85 11 -107 -2z"/>
<path d="M4876 825 c-34 -23 -36 -23 -36 -5 0 18 -7 20 -81 20 -58 0 -80 -3
-77 -12 3 -7 19 -16 36 -20 l32 -9 0 -204 0 -204 -32 -9 c-17 -4 -33 -13 -36
-20 -3 -9 25 -12 108 -12 84 0 111 3 108 12 -3 7 -15 15 -29 18 l-24 6 -3 173
c-2 161 -1 175 19 207 37 60 80 70 120 28 23 -25 24 -31 27 -214 l4 -188 -31
-10 c-60 -21 -34 -32 74 -32 82 0 105 3 105 14 0 7 -13 16 -30 20 l-30 6 0
177 c0 160 -2 181 -20 211 -44 72 -136 93 -204 47z"/>
<path d="M5340 839 c-14 -5 -37 -22 -52 -36 -22 -21 -28 -36 -28 -71 0 -37 3
-43 18 -38 9 3 29 8 45 12 22 5 27 12 27 36 0 58 42 96 86 76 31 -14 44 -43
51 -113 7 -72 11 -68 -85 -78 -60 -7 -133 -46 -159 -86 -26 -38 -30 -92 -10
-131 42 -83 185 -96 245 -22 10 14 12 12 12 -11 0 -27 0 -27 75 -27 57 0 75 3
75 14 0 7 -13 16 -30 20 l-30 6 0 172 c0 190 -8 221 -63 262 -31 23 -136 32
-177 15z m150 -305 c0 -70 -8 -94 -48 -136 -70 -75 -150 20 -104 124 21 49 65
77 120 78 l32 0 0 -66z"/>
<path d="M6887 839 c-10 -6 -32 -32 -48 -57 l-29 -46 0 52 0 52 -76 0 c-55 0
-75 -3 -72 -12 3 -7 15 -15 29 -18 l24 -6 0 -209 0 -209 -24 -6 c-14 -3 -26
-11 -29 -18 -3 -9 24 -12 108 -12 83 0 111 3 108 12 -3 7 -19 16 -36 20 l-32
9 0 143 c0 132 2 146 23 177 33 48 69 67 106 53 28 -11 29 -10 45 29 8 22 13
44 10 48 -7 12 -85 11 -107 -2z"/>
<path d="M7155 835 c-149 -75 -169 -348 -34 -457 64 -52 163 -50 225 4 63 55
79 99 79 213 0 110 -15 153 -72 207 -51 49 -137 63 -198 33z m127 -42 c24 -26
48 -126 48 -198 0 -193 -101 -299 -166 -174 -39 76 -37 283 4 353 33 57 74 64
114 19z"/>
<path d="M7696 825 c-34 -23 -36 -23 -36 -5 0 18 -7 20 -81 20 -58 0 -80 -3
-77 -12 3 -7 19 -16 36 -20 l32 -9 0 -204 0 -204 -32 -9 c-17 -4 -33 -13 -36
-20 -3 -9 24 -12 102 -12 85 0 106 3 106 14 0 8 -10 16 -22 18 -23 3 -23 5
-26 176 -3 187 3 215 53 248 33 21 64 15 89 -19 19 -26 21 -44 24 -211 l4
-184 -31 -10 c-60 -21 -34 -32 74 -32 108 0 134 11 75 31 l-30 11 0 174 0 174
36 40 c43 47 70 51 105 14 24 -25 24 -28 24 -217 l0 -191 -24 -6 c-14 -3 -26
-11 -29 -18 -3 -9 23 -12 102 -12 83 0 106 3 106 14 0 7 -13 16 -30 19 l-30 6
0 178 c0 199 -7 223 -72 263 -60 37 -159 15 -189 -41 -10 -19 -11 -19 -31 6
-46 59 -130 72 -192 30z"/>
<path d="M8955 836 c-80 -35 -125 -122 -125 -241 0 -39 7 -92 15 -117 39 -114
163 -170 263 -119 48 24 66 45 94 106 43 97 24 258 -40 328 -46 51 -143 71
-207 43z m125 -45 c31 -44 43 -112 38 -223 -2 -79 -8 -112 -24 -143 -41 -79
-96 -77 -136 4 -20 40 -23 62 -23 166 0 105 3 126 23 166 35 71 84 83 122 30z"/>
<path d="M9485 819 l-35 -31 0 26 c0 26 -1 26 -76 26 -55 0 -75 -3 -72 -12 3
-7 15 -15 29 -18 l24 -6 0 -209 0 -209 -24 -6 c-14 -3 -26 -11 -29 -18 -3 -9
23 -12 102 -12 83 0 106 3 106 14 0 7 -13 16 -30 20 l-30 6 0 167 c0 149 2
172 20 200 42 70 105 80 135 23 13 -24 15 -64 13 -212 -3 -181 -3 -183 -25
-186 -13 -2 -23 -10 -23 -18 0 -11 21 -14 106 -14 79 0 105 3 102 12 -3 7 -15
15 -29 18 l-24 6 -5 179 c-6 201 -14 227 -73 264 -53 33 -118 29 -162 -10z"/>
<path d="M9970 843 c-138 -56 -176 -319 -64 -443 42 -46 89 -64 154 -58 60 6
107 39 131 92 23 50 24 66 4 66 -8 0 -15 -8 -15 -17 0 -48 -73 -113 -126 -113
-58 0 -93 55 -109 173 l-7 47 142 0 143 0 -7 56 c-8 70 -46 145 -88 175 -32
23 -125 36 -158 22z m95 -37 c24 -24 38 -65 49 -143 l6 -43 -90 0 -90 0 6 43
c11 78 25 119 49 143 13 13 29 24 35 24 6 0 22 -11 35 -24z"/>
<path d="M10370 832 c-20 -11 -43 -34 -54 -56 -37 -76 4 -147 122 -209 125
-66 150 -111 93 -168 -58 -58 -145 -26 -191 69 -14 28 -29 52 -35 52 -6 0 -10
-37 -10 -90 0 -95 8 -110 42 -71 16 19 17 19 52 0 45 -24 124 -25 171 -1 77
38 103 133 56 202 -16 24 -56 54 -121 90 -105 59 -126 83 -107 125 36 78 137
47 183 -55 33 -74 44 -64 44 40 0 96 -7 108 -43 72 -18 -18 -20 -18 -53 0 -43
23 -105 23 -149 0z"/>
<path d="M3652 828 c3 -7 15 -15 29 -18 l24 -6 0 -209 0 -209 -24 -6 c-14 -3
-26 -11 -29 -18 -3 -9 24 -12 108 -12 83 0 111 3 108 12 -3 7 -19 16 -36 20
l-32 9 0 224 0 225 -76 0 c-55 0 -75 -3 -72 -12z"/>
<path d="M4420 826 c0 -7 14 -16 30 -19 l30 -6 0 -206 0 -206 -30 -6 c-16 -3
-30 -12 -30 -19 0 -11 23 -14 105 -14 82 0 105 3 105 14 0 7 -13 16 -30 20
l-30 6 0 225 0 225 -75 0 c-57 0 -75 -3 -75 -14z"/>
</g>
</svg>
